<?xml version="1.0"?>
<svg xmlns="http://www.w3.org/2000/svg" xmlns:xlink="http://www.w3.org/1999/xlink" version="1.1" id="Capa_1" x="0px" y="0px" viewBox="0 0 512 512" style="enable-background:new 0 0 512 512;" xml:space="preserve" width="512px" height="512px"><g><g>
	<g>
		<path d="M502,109.182h-31c-1.285,0-2.509,0.251-3.638,0.693C455.587,51.175,403.643,6.818,341.528,6.818    c-61.87,0-113.654,44.008-125.697,102.364H10c-5.522,0-10,4.477-10,10v376c0,5.522,4.478,10,10,10h492c5.522,0,10-4.478,10-10    v-376C512,113.659,507.522,109.182,502,109.182z M341.528,26.818c59.739,0,108.341,48.602,108.341,108.341    c0,25.13-8.798,49.619-24.772,68.955c-0.28,0.339-0.535,0.694-0.765,1.06l-82.802,106.08l-83.68-107.257    c-0.11-0.152-0.226-0.301-0.345-0.448c-15.682-19.242-24.318-43.53-24.318-68.391C233.188,75.419,281.789,26.818,341.528,26.818z     M492,485.183h-41.743v-0.001l-159.904-76.055c-4.988-2.375-10.954-0.253-13.325,4.735c-2.372,4.987-0.252,10.953,4.735,13.325    l121.932,57.994H36.779l118.264-118.265l53.571,25.479c4.987,2.374,10.953,0.252,13.325-4.735    c2.372-4.987,0.252-10.953-4.735-13.325l-59.945-28.512c-3.823-1.821-8.374-1.033-11.366,1.959L20,473.676v-39.642    c0.154-0.136,0.31-0.266,0.457-0.413l110.614-110.614c1.875-1.876,2.929-4.419,2.929-7.071v-65.33c0-5.523-4.478-10-10-10    c-5.522,0-10,4.477-10,10v61.188l-94,94V129.182h94v47.494c0,5.523,4.478,10,10,10c5.522,0,10-4.477,10-10v-47.494h28v181.569    c0,3.851,2.211,7.359,5.686,9.021L492,474.881V485.183z M492.001,452.711L182,304.45V129.182h31.331    c-0.091,1.982-0.144,3.973-0.144,5.977c0.001,29.329,10.148,57.987,28.584,80.741c0.03,0.04,0.061,0.079,0.091,0.119    l91.782,117.642c1.896,2.429,4.804,3.849,7.884,3.849c0,0,0,0,0.001,0c3.08,0,5.988-1.419,7.883-3.847l91.346-117.026    c0.164-0.209,0.318-0.425,0.463-0.645c18.482-22.775,28.649-51.437,28.649-80.833c0-2.034-0.053-4.056-0.147-6.068    c0.419,0.054,0.844,0.091,1.278,0.091h21V452.711z" data-original="#000000" class="active-path" data-old_color="#000000" fill="#DDC39C"/>
	</g>
</g><g>
	<g>
		<path d="M258.12,394.438c-1.86-1.86-4.44-2.93-7.07-2.93s-5.21,1.069-7.07,2.93c-1.859,1.859-2.93,4.439-2.93,7.07    c0,2.63,1.07,5.21,2.93,7.069c1.86,1.86,4.44,2.931,7.07,2.931s5.21-1.07,7.07-2.931c1.859-1.859,2.93-4.439,2.93-7.069    C261.05,398.877,259.98,396.297,258.12,394.438z" data-original="#000000" class="active-path" data-old_color="#000000" fill="#DDC39C"/>
	</g>
</g><g>
	<g>
		<path d="M131.069,202.438c-1.859-1.86-4.439-2.93-7.069-2.93s-5.21,1.07-7.07,2.93s-2.93,4.44-2.93,7.07    c0,2.64,1.069,5.21,2.93,7.07c1.86,1.86,4.44,2.93,7.07,2.93s5.21-1.07,7.069-2.93c1.86-1.86,2.931-4.43,2.931-7.07    C134,206.878,132.93,204.298,131.069,202.438z" data-original="#000000" class="active-path" data-old_color="#000000" fill="#DDC39C"/>
	</g>
</g><g>
	<g>
		<path d="M399.528,190.511V70.165c0-5.523-4.478-10-10-10h-96c-5.522,0-10,4.477-10,10v120.347    c-4.296,1.122-7.471,5.017-7.471,9.665c0.001,5.522,4.478,9.999,10.001,9.999H397c5.522,0,10-4.477,10-10    C407,195.528,403.824,191.633,399.528,190.511z M347.612,190.176h-12.167v-16h12.167V190.176z M379.528,190.176h-11.916v-26    c0-5.523-4.478-10-10-10h-32.167c-5.522,0-10,4.477-10,10v26h-11.917V80.165h76V190.176z" data-original="#000000" class="active-path" data-old_color="#000000" fill="#DDC39C"/>
	</g>
</g><g>
	<g>
		<path d="M332.519,95.608c-1.859-1.86-4.439-2.93-7.08-2.93c-2.63,0-5.21,1.07-7.069,2.93c-1.86,1.86-2.931,4.44-2.931,7.07    s1.07,5.21,2.931,7.07c1.859,1.86,4.44,2.93,7.069,2.93c2.641,0,5.21-1.07,7.08-2.93c1.86-1.86,2.92-4.44,2.92-7.07    S334.379,97.468,332.519,95.608z" data-original="#000000" class="active-path" data-old_color="#000000" fill="#DDC39C"/>
	</g>
</g><g>
	<g>
		<path d="M364.679,95.608c-1.861-1.86-4.439-2.93-7.07-2.93c-2.63,0-5.21,1.07-7.069,2.93c-1.86,1.86-2.931,4.44-2.931,7.07    s1.07,5.21,2.931,7.07c1.859,1.86,4.439,2.93,7.069,2.93c2.631,0,5.21-1.07,7.07-2.93s2.93-4.44,2.93-7.07    C367.609,100.038,366.54,97.468,364.679,95.608z" data-original="#000000" class="active-path" data-old_color="#000000" fill="#DDC39C"/>
	</g>
</g><g>
	<g>
		<path d="M332.519,126.358c-1.87-1.86-4.439-2.93-7.08-2.93c-2.63,0-5.21,1.07-7.069,2.93c-1.86,1.86-2.931,4.44-2.931,7.07    s1.07,5.21,2.931,7.07c1.859,1.86,4.44,2.93,7.069,2.93c2.641,0,5.21-1.07,7.08-2.93c1.86-1.86,2.92-4.44,2.92-7.07    S334.379,128.218,332.519,126.358z" data-original="#000000" class="active-path" data-old_color="#000000" fill="#DDC39C"/>
	</g>
</g><g>
	<g>
		<path d="M364.679,126.358c-1.861-1.86-4.43-2.93-7.07-2.93c-2.63,0-5.21,1.07-7.069,2.93c-1.86,1.86-2.931,4.44-2.931,7.07    s1.07,5.21,2.931,7.07c1.859,1.86,4.439,2.93,7.069,2.93c2.631,0,5.21-1.07,7.07-2.93s2.93-4.44,2.93-7.07    C367.609,130.788,366.54,128.218,364.679,126.358z" data-original="#000000" class="active-path" data-old_color="#000000" fill="#DDC39C"/>
	</g>
</g></g> </svg>
