<?xml version="1.0"?>
<svg xmlns="http://www.w3.org/2000/svg" id="Capa_1" enable-background="new 0 0 512 512" height="512px" viewBox="0 0 512 512" width="512px"><g><path d="m466 0h-420c-8.284 0-15 6.716-15 15v300c0 8.284 6.716 15 15 15h95v43.787c0 17.687 6.887 34.314 19.394 46.82 6.84 6.84 10.606 15.934 10.606 25.607v50.786c0 8.284 6.716 15 15 15h140c8.284 0 15-6.716 15-15v-50.787c0-9.673 3.767-18.767 10.606-25.607 12.507-12.505 19.394-29.133 19.394-46.819v-43.787h95c8.284 0 15-6.716 15-15v-300c0-8.284-6.716-15-15-15zm-405 30h37.921c-5.191 18.291-19.63 32.73-37.921 37.921zm0 172.079c18.291 5.191 32.73 19.63 37.921 37.921h-37.921zm0 97.921v-30h220v30zm280 73.787c0 9.673-3.767 18.767-10.607 25.607-12.506 12.506-19.393 29.134-19.393 46.819v35.787h-110v-35.787c0-17.687-6.887-34.314-19.394-46.82-6.84-6.84-10.606-15.934-10.606-25.607v-43.786h110v.096c-23.057 6.547-40 27.777-40 52.904 0 8.284 6.716 15 15 15s15-6.716 15-15c0-13.785 11.215-25 25-25 8.284 0 15-6.716 15-15v-88c0-8.271 6.729-15 15-15s15 6.729 15 15zm110-73.787h-80v-30h80zm0-60h-37.921c5.191-18.291 19.63-32.73 37.921-37.921zm0-68.648c-34.863 6.237-62.411 33.785-68.648 68.648h-13.932c-6.192-17.459-22.865-30-42.42-30s-36.228 12.541-42.42 30h-153.932c-6.237-34.863-33.785-62.411-68.648-68.648v-72.704c34.863-6.237 62.411-33.785 68.648-68.648h252.705c6.237 34.863 33.785 62.411 68.648 68.648v72.704zm0-103.431c-18.291-5.191-32.73-19.63-37.921-37.921h37.921z" data-original="#000000" class="active-path" data-old_color="#000000" fill="#DDC39C"/><path d="m256 70c-35.841 0-65 29.159-65 65s29.159 65 65 65 65-29.159 65-65-29.159-65-65-65zm0 100c-19.299 0-35-15.701-35-35s15.701-35 35-35 35 15.701 35 35-15.701 35-35 35z" data-original="#000000" class="active-path" data-old_color="#000000" fill="#DDC39C"/><path d="m366 120c-8.284 0-15 6.716-15 15s6.716 15 15 15h30c8.284 0 15-6.716 15-15s-6.716-15-15-15z" data-original="#000000" class="active-path" data-old_color="#000000" fill="#DDC39C"/><path d="m146 120h-30c-8.284 0-15 6.716-15 15s6.716 15 15 15h30c8.284 0 15-6.716 15-15s-6.716-15-15-15z" data-original="#000000" class="active-path" data-old_color="#000000" fill="#DDC39C"/></g> </svg>
