<?xml version="1.0"?>
<svg xmlns="http://www.w3.org/2000/svg" height="512px" viewBox="-5 0 512 512.001" width="512px"><g><path d="m363.832031 104.851562c0 22.324219-18.09375 40.421876-40.417969 40.421876-22.324218 0-40.421874-18.097657-40.421874-40.421876 0-22.320312 18.097656-40.417968 40.421874-40.417968 22.324219 0 40.417969 18.097656 40.417969 40.417968zm0 0" data-original="#000000" class="active-path" data-old_color="#000000" fill="#DDC39C"/><path d="m146.128906 90.5c-10.460937 7.589844-24.492187 11.367188-37.699218 11.367188-13.214844 0-27.253907-3.785157-37.699219-11.371094-.472657 21.421875 16.765625 38.566406 37.699219 38.566406 20.945312 0 38.164062-17.152344 37.699218-38.5625zm0 0" data-original="#000000" class="active-path" data-old_color="#000000" fill="#DDC39C"/><path d="m71.359375 61.652344v7.097656c.011719 8.425781 16.589844 19.40625 37.070313 19.40625 20.480468 0 37.070312-10.980469 37.082031-19.40625v-7.105469c5.847656-1.871093 10.738281-4.722656 13.714843-9.085937 1.980469-2.902344 3.113282-6.46875 3.113282-10.863282 0-18.097656-23.304688-40.550781-53.910156-40.550781-30.90625 0-53.914063 22.664063-53.914063 40.550781 0 4.402344 1.140625 7.980469 3.128906 10.886719 2.980469 4.351563 7.871094 7.199219 13.714844 9.070313zm37.070313-21.492188c3.464843 0 7.339843 5.601563 7.339843 13.097656 0 7.496094-3.875 13.097657-7.339843 13.097657-3.464844 0-7.339844-5.601563-7.339844-13.097657 0-7.496093 3.875-13.097656 7.339844-13.097656zm0 0" data-original="#000000" class="active-path" data-old_color="#000000" fill="#DDC39C"/><path d="m102.191406 139.992188c-1.777344 0-3.117187 1.609374-2.792968 3.355468l2.324218 12.589844c.246094 1.34375 1.421875 2.324219 2.789063 2.324219h9.46875c1.367187 0 2.542969-.980469 2.792969-2.324219l2.324218-12.589844c.320313-1.746094-1.019531-3.355468-2.792968-3.355468zm0 0" data-original="#000000" class="active-path" data-old_color="#000000" fill="#DDC39C"/><path d="m441.390625 0v222.648438h-1.75c-4.605469 0-8.25 3.757812-8.25 8.25v16.625c-2.394531-3.894532-6.214844-6.921876-10.976563-8.195313l-68.332031-18.234375-37.09375-46.761719 28.640625 22.859375c-5.761718-35.808594-5.144531-35.046875-6.488281-38.640625-4.390625 1.125-8.992187 1.722657-13.726563 1.722657-14.628906 0-27.945312-5.707032-37.859374-15h-11.59375c-10.101563 0-18.6875 7.375-20.214844 17.363281l-31.863282 208.773437c-.558593 3.648438 2.269532 6.941406 5.960938 6.941406h19.242188l.289062 111.769532c.03125 12.097656 9.847656 21.878906 21.9375 21.878906h.058594c12.113281-.03125 21.910156-9.878906 21.878906-21.992188l-.289062-111.65625h9.753906l.007812 111.714844c0 12.113282 9.820313 21.9375 21.9375 21.933594 12.113282 0 21.933594-9.820312 21.933594-21.9375l-.003906-111.710938h20.351562c3.699219 0 6.53125-3.308593 5.957032-6.964843l-14.90625-95.234375-23.285157-6.214844c-2.515625-1.113281-12.695312-1.207031-17.703125-11.609375l-29.011718-60.992187 40.898437 51.5625c2.472656 3.117187 5.882813 5.355468 9.726563 6.382812l72.773437 19.417969v6.519531c0 4.96875 4.027344 9 9 9 4.902344 0 8.882813-3.925781 8.988281-8.804688h4.011719v36.988282c0 4.554687 3.695313 8.25 8.25 8.25h1.75v185.347656h61v-512zm0 0" data-original="#000000" class="active-path" data-old_color="#000000" fill="#DDC39C"/><path d="m199.171875 180.851562c-6.828125-23-28.355469-39.0625-52.34375-39.0625h-12.011719c-1.398437 7.265626-7.304687 34.59375-18.554687 43.15625l1.949219-9.273437c.066406-.304687.070312-.621094.007812-.929687l-2.292969-11.652344c-.214843-1.089844-1.171875-1.878906-2.285156-1.878906h-8.792969c-1.109375 0-2.066406.789062-2.28125 1.878906l-2.292968 11.652344c-.0625.308593-.058594.625.003906.929687l1.953125 9.273437c-11.25-8.5625-17.160157-35.890624-18.558594-43.15625h-10.785156c-23.992188 0-45.515625 16.0625-52.34375 39.0625l-19.8125 66.75c-2.71875 9.144532 2.394531 18.785157 11.492187 21.664063l48.820313 15.449219c-.03125 25.277344-.257813 196.480468-.269531 205.363281 0 12.109375 9.8125 21.921875 21.917968 21.921875 12.105469 0 21.921875-9.8125 21.921875-21.921875v-174.570313h9.269531v174.570313c0 12.109375 9.8125 21.921875 21.917969 21.921875 12.109375 0 21.921875-9.8125 21.921875-21.921875-.011718-9.234375-.238281-180.5625-.273437-204.976563l50.042969-15.835937c9.097656-2.878906 14.210937-12.519531 11.496093-21.667969zm-138.128906 67.152344-21.871094-6.921875 14.921875-50.269531c1.207031-4.070312 3.703125-7.53125 6.949219-10zm96.40625.386719v-68.433594c3.839843 2.488281 6.8125 6.289063 8.167969 10.855469l14.921874 50.269531zm0 0" data-original="#000000" class="active-path" data-old_color="#000000" fill="#DDC39C"/></g> </svg>
